<mxfile host="app.diagrams.net" modified="2022-08-22T16:52:43.670Z" agent="5.0 (Macintosh; Intel Mac OS X 10_15_7) AppleWebKit/537.36 (KHTML, like Gecko) Chrome/104.0.0.0 Safari/537.36" etag="CVmIlT0AyPiTGE4N3JYz" version="20.2.6" type="github">
  <diagram id="rTlfoWxQpPeoWhK9-V48" name="Page-1">
    <mxGraphModel dx="572" dy="395" grid="1" gridSize="10" guides="1" tooltips="1" connect="1" arrows="1" fold="1" page="1" pageScale="1" pageWidth="850" pageHeight="1100" math="0" shadow="0">
      <root>
        <mxCell id="0" />
        <mxCell id="1" parent="0" />
        <mxCell id="8kAA2Tu8r73QqAZFtogS-1" value="" style="endArrow=none;dashed=1;html=1;dashPattern=1 3;strokeWidth=2;rounded=0;" edge="1" parent="1">
          <mxGeometry width="50" height="50" relative="1" as="geometry">
            <mxPoint x="400" y="420" as="sourcePoint" />
            <mxPoint x="400" as="targetPoint" />
          </mxGeometry>
        </mxCell>
        <mxCell id="8kAA2Tu8r73QqAZFtogS-2" value="" style="endArrow=none;dashed=1;html=1;dashPattern=1 3;strokeWidth=2;rounded=0;" edge="1" parent="1">
          <mxGeometry width="50" height="50" relative="1" as="geometry">
            <mxPoint y="80" as="sourcePoint" />
            <mxPoint x="850" y="80" as="targetPoint" />
          </mxGeometry>
        </mxCell>
        <mxCell id="8kAA2Tu8r73QqAZFtogS-3" value="天花" style="text;html=1;align=center;verticalAlign=middle;resizable=0;points=[];autosize=1;strokeColor=none;fillColor=none;" vertex="1" parent="1">
          <mxGeometry x="190" y="25" width="50" height="30" as="geometry" />
        </mxCell>
        <mxCell id="8kAA2Tu8r73QqAZFtogS-4" value="墙壁开关" style="text;html=1;align=center;verticalAlign=middle;resizable=0;points=[];autosize=1;strokeColor=none;fillColor=none;" vertex="1" parent="1">
          <mxGeometry x="610" y="25" width="70" height="30" as="geometry" />
        </mxCell>
        <mxCell id="8kAA2Tu8r73QqAZFtogS-5" value="" style="verticalLabelPosition=bottom;verticalAlign=top;html=1;shape=mxgraph.basic.rect;fillColor2=none;strokeWidth=1;size=20;indent=5;fillColor=none;dashed=1;" vertex="1" parent="1">
          <mxGeometry x="40" y="100" width="350" height="270" as="geometry" />
        </mxCell>
        <mxCell id="8kAA2Tu8r73QqAZFtogS-6" value="厨房过道" style="text;html=1;align=center;verticalAlign=middle;resizable=0;points=[];autosize=1;strokeColor=none;fillColor=none;rotation=-90;" vertex="1" parent="1">
          <mxGeometry x="-20" y="220" width="70" height="30" as="geometry" />
        </mxCell>
        <mxCell id="8kAA2Tu8r73QqAZFtogS-7" value="" style="shape=sumEllipse;perimeter=ellipsePerimeter;whiteSpace=wrap;html=1;backgroundOutline=1;fillColor=none;" vertex="1" parent="1">
          <mxGeometry x="110" y="160" width="30" height="30" as="geometry" />
        </mxCell>
        <mxCell id="8kAA2Tu8r73QqAZFtogS-9" value="" style="shape=ext;double=1;whiteSpace=wrap;html=1;aspect=fixed;fillColor=none;flipV=1;" vertex="1" parent="1">
          <mxGeometry x="200" y="130" width="50" height="50" as="geometry" />
        </mxCell>
        <mxCell id="8kAA2Tu8r73QqAZFtogS-12" value="" style="shape=sumEllipse;perimeter=ellipsePerimeter;whiteSpace=wrap;html=1;backgroundOutline=1;fillColor=none;" vertex="1" parent="1">
          <mxGeometry x="110" y="225" width="30" height="30" as="geometry" />
        </mxCell>
        <mxCell id="8kAA2Tu8r73QqAZFtogS-13" value="" style="shape=sumEllipse;perimeter=ellipsePerimeter;whiteSpace=wrap;html=1;backgroundOutline=1;fillColor=none;" vertex="1" parent="1">
          <mxGeometry x="110" y="290" width="30" height="30" as="geometry" />
        </mxCell>
        <mxCell id="8kAA2Tu8r73QqAZFtogS-14" value="" style="verticalLabelPosition=bottom;verticalAlign=top;html=1;shape=mxgraph.basic.rect;fillColor2=none;strokeWidth=1;size=20;indent=5;fillColor=none;dashed=1;" vertex="1" parent="1">
          <mxGeometry x="40" y="380" width="350" height="270" as="geometry" />
        </mxCell>
        <mxCell id="8kAA2Tu8r73QqAZFtogS-15" value="卫生间" style="text;html=1;align=center;verticalAlign=middle;resizable=0;points=[];autosize=1;strokeColor=none;fillColor=none;rotation=-90;" vertex="1" parent="1">
          <mxGeometry x="-15" y="500" width="60" height="30" as="geometry" />
        </mxCell>
        <mxCell id="8kAA2Tu8r73QqAZFtogS-17" value="" style="shape=sumEllipse;perimeter=ellipsePerimeter;whiteSpace=wrap;html=1;backgroundOutline=1;fillColor=none;" vertex="1" parent="1">
          <mxGeometry x="110" y="460" width="30" height="30" as="geometry" />
        </mxCell>
        <mxCell id="8kAA2Tu8r73QqAZFtogS-18" value="" style="shape=sumEllipse;perimeter=ellipsePerimeter;whiteSpace=wrap;html=1;backgroundOutline=1;fillColor=none;" vertex="1" parent="1">
          <mxGeometry x="110" y="520" width="30" height="30" as="geometry" />
        </mxCell>
        <mxCell id="8kAA2Tu8r73QqAZFtogS-19" value="&lt;font style=&quot;font-size: 11px;&quot;&gt;卫生间门口&lt;/font&gt;" style="shape=ext;double=1;whiteSpace=wrap;html=1;aspect=fixed;fillColor=none;flipV=1;fontSize=5;" vertex="1" parent="1">
          <mxGeometry x="630" y="170" width="50" height="50" as="geometry" />
        </mxCell>
        <mxCell id="8kAA2Tu8r73QqAZFtogS-20" value="" style="shape=ext;double=1;whiteSpace=wrap;html=1;aspect=fixed;fillColor=none;flipV=1;" vertex="1" parent="1">
          <mxGeometry x="200" y="195" width="50" height="50" as="geometry" />
        </mxCell>
        <mxCell id="8kAA2Tu8r73QqAZFtogS-21" value="" style="shape=ext;double=1;whiteSpace=wrap;html=1;aspect=fixed;fillColor=none;flipV=1;" vertex="1" parent="1">
          <mxGeometry x="200" y="260" width="50" height="50" as="geometry" />
        </mxCell>
        <mxCell id="8kAA2Tu8r73QqAZFtogS-23" value="" style="endArrow=none;html=1;rounded=0;fontSize=11;strokeColor=#FF0000;strokeWidth=2;" edge="1" parent="1">
          <mxGeometry width="50" height="50" relative="1" as="geometry">
            <mxPoint x="450" y="240" as="sourcePoint" />
            <mxPoint x="530" y="180" as="targetPoint" />
          </mxGeometry>
        </mxCell>
      </root>
    </mxGraphModel>
  </diagram>
</mxfile>
